<svg width="28" height="52" viewBox="0 0 28 52" fill="none" xmlns="http://www.w3.org/2000/svg">
<path d="M5.32104 52C5.29827 51.9993 5.27658 51.9904 5.2601 51.975C5.25583 51.9708 5.24974 51.9643 5.25279 51.9339L7.56869 27.2956C7.5925 27.042 7.56195 26.7863 7.47899 26.5448C7.39603 26.3034 7.26248 26.0815 7.08688 25.8933C6.91128 25.7051 6.69747 25.5548 6.45912 25.452C6.22076 25.3492 5.96309 25.296 5.70256 25.296H1.64729C1.39515 25.2963 1.14633 25.2399 0.920021 25.1312C0.693714 25.0226 0.495985 24.8645 0.342087 24.6692C0.18819 24.474 0.0822418 24.2467 0.0324308 24.0051C-0.0173803 23.7635 -0.00972658 23.5139 0.0548015 23.2756L6.01338 1.18809C6.10536 0.84767 6.30994 0.546556 6.59522 0.33166C6.88051 0.116764 7.23048 0.000154543 7.59063 2.74255e-08H27.4178C27.5167 -2.99974e-05 27.614 0.0245933 27.7005 0.0715478C27.787 0.118502 27.8598 0.186237 27.9121 0.268353C27.9644 0.35047 27.9944 0.44426 27.9993 0.540863C28.0042 0.637466 27.9838 0.733692 27.9401 0.820458L20.2208 16.1387C20.0356 16.5067 19.9493 16.9148 19.9701 17.3244C19.991 17.7341 20.1182 18.1318 20.3398 18.48C20.5614 18.8283 20.8701 19.1156 21.2368 19.3148C21.6035 19.5141 22.016 19.6188 22.4356 19.6189H26.6127C26.7598 19.6187 26.9041 19.6578 27.03 19.7321C27.1559 19.8063 27.2586 19.9128 27.3271 20.04C27.3955 20.1673 27.427 20.3104 27.4182 20.4539C27.4094 20.5974 27.3605 20.7358 27.277 20.8541L5.36066 51.9738C5.34116 52 5.33262 52 5.32104 52Z" fill="#0085FF"/>
</svg>
